<?xml version="1.0" standalone="no"?><!DOCTYPE svg PUBLIC "-//W3C//DTD SVG 1.1//EN" "http://www.w3.org/Graphics/SVG/1.1/DTD/svg11.dtd"><svg t="1574906890552" class="icon" viewBox="0 0 1024 1024" version="1.1" xmlns="http://www.w3.org/2000/svg" p-id="1138" xmlns:xlink="http://www.w3.org/1999/xlink" width="32" height="32"><defs><style type="text/css"></style></defs><path d="M751.709091 772.654545l-32.581818-32.581818 218.763636-218.763636a11.636364 11.636364 0 0 0 0-16.290909l-218.763636-218.763637 32.581818-32.581818 218.763636 218.763637a58.181818 58.181818 0 0 1 0 81.454545z" fill="#FFA942" p-id="1139"></path><path d="M339.781818 488.727273h605.090909v46.545454h-605.090909z" fill="#FFA942" p-id="1140"></path><path d="M712.145455 1000.727273h-512a162.909091 162.909091 0 0 1-162.909091-162.909091V183.854545A160.581818 160.581818 0 0 1 197.818182 23.272727h514.327273a160.581818 160.581818 0 0 1 162.90909 162.909091h-46.545454v-4.654545a114.036364 114.036364 0 0 0-116.363636-111.709091H197.818182a114.036364 114.036364 0 0 0-114.036364 114.036363V837.818182a116.363636 116.363636 0 0 0 116.363637 116.363636h512c67.490909 0 116.363636-72.145455 116.363636-137.309091h46.545454c0 86.109091-67.490909 183.854545-162.90909 183.854546z" fill="#FFA942" p-id="1141"></path></svg>